<?xml version="1.0" standalone="no"?>
<!DOCTYPE svg PUBLIC "-//W3C//DTD SVG 20010904//EN"
 "http://www.w3.org/TR/2001/REC-SVG-20010904/DTD/svg10.dtd">
<svg version="1.0" xmlns="http://www.w3.org/2000/svg"
 width="1024.000000pt" height="559.000000pt" viewBox="0 0 1024.000000 559.000000"
 preserveAspectRatio="xMidYMid meet">

<g transform="translate(0.000000,559.000000) scale(0.100000,-0.100000)"
fill="#000000" stroke="none">
<path d="M7000 3305 l0 -126 123 3 122 3 3 123 3 122 -126 0 -125 0 0 -125z
m178 65 c16 -15 22 -32 22 -62 0 -56 -22 -78 -76 -78 -34 0 -47 5 -63 26 -36
46 -26 98 23 120 44 19 69 17 94 -6z"/>
<path d="M8450 2760 l0 -590 125 0 125 0 0 118 0 118 55 54 c30 29 57 51 60
49 3 -3 58 -80 123 -170 l118 -164 148 -3 148 -3 -44 63 c-25 35 -106 147
-181 249 -75 103 -137 191 -137 197 0 8 72 87 267 292 l52 55 -142 3 -142 3
-162 -168 -163 -168 -2 325 -3 325 -122 3 -123 3 0 -591z"/>
<path d="M1285 3314 c-108 -21 -138 -30 -188 -55 -119 -60 -177 -157 -177
-292 1 -116 51 -201 151 -252 49 -25 162 -63 274 -91 151 -37 214 -87 201
-158 -17 -89 -147 -127 -315 -91 -71 15 -170 56 -226 94 l-31 20 -43 -97 -43
-97 24 -19 c36 -30 156 -82 233 -101 94 -23 287 -24 372 -2 117 31 200 89 251
176 24 42 27 55 27 146 0 116 -16 156 -86 219 -57 52 -119 78 -283 121 -207
54 -256 82 -256 148 0 81 68 122 205 122 94 0 152 -14 250 -60 27 -13 51 -23
52 -21 2 2 21 44 42 94 l39 91 -33 21 c-102 63 -328 106 -440 84z"/>
<path d="M5920 2735 l0 -565 130 0 130 0 0 164 0 164 178 5 c144 4 188 8 233
25 116 41 200 118 240 218 19 48 23 77 23 159 1 89 -3 107 -28 162 -54 118
-179 204 -327 223 -40 5 -188 10 -326 10 l-253 0 0 -565z m575 336 c69 -31
115 -105 115 -181 -1 -39 -34 -103 -69 -133 -46 -38 -90 -47 -233 -47 l-128 0
0 190 0 190 138 0 c111 0 145 -4 177 -19z"/>
<path d="M5260 3130 l0 -110 -65 0 -66 0 3 -92 3 -93 62 -3 61 -3 4 -227 c3
-212 5 -231 27 -279 50 -112 143 -163 297 -163 87 0 194 29 194 53 0 7 -12 47
-27 90 -25 68 -31 77 -48 72 -97 -30 -140 -24 -172 24 -22 32 -23 43 -23 232
l0 199 110 0 110 0 0 95 0 95 -110 0 -110 0 0 110 0 110 -125 0 -125 0 0 -110z"/>
<path d="M2350 3035 c-55 -16 -150 -70 -150 -86 0 -5 -4 -9 -10 -9 -5 0 -9 8
-8 18 1 9 0 29 0 45 l-2 27 -115 0 -115 0 0 -430 0 -430 125 0 125 0 0 248 c0
257 6 308 37 351 39 51 70 66 138 66 72 0 106 -18 140 -76 18 -31 20 -55 23
-311 l3 -278 125 0 124 0 0 253 c0 153 4 268 11 292 44 158 276 166 318 10 7
-24 11 -143 11 -297 l0 -258 126 0 125 0 -3 308 c-4 348 -9 377 -81 458 -120
136 -364 150 -513 28 l-55 -45 -50 45 c-27 24 -70 52 -97 61 -69 24 -167 28
-232 10z"/>
<path d="M3785 3034 c-79 -15 -131 -35 -192 -70 l-42 -24 41 -73 c22 -39 43
-75 47 -80 4 -4 34 6 67 23 104 51 240 57 315 13 31 -18 69 -85 69 -120 0 -21
-5 -21 -172 -25 -192 -4 -255 -20 -323 -79 -109 -96 -97 -286 23 -376 64 -49
136 -66 251 -61 102 4 133 15 204 70 l37 30 0 -46 0 -46 115 0 115 0 0 273 c0
299 -8 363 -54 440 -46 80 -126 128 -254 153 -89 17 -154 17 -247 -2z m305
-545 c0 -85 -49 -140 -144 -163 -118 -29 -229 77 -165 158 35 45 72 55 197 56
l112 0 0 -51z"/>
<path d="M4928 3034 c-64 -15 -97 -33 -145 -78 l-33 -30 0 52 0 52 -120 0
-120 0 0 -430 0 -430 125 0 125 0 0 239 c0 151 4 250 11 272 30 89 109 142
211 142 l58 0 0 114 0 113 -27 -1 c-16 0 -54 -7 -85 -15z"/>
<path d="M7873 3039 c-58 -11 -128 -43 -166 -75 l-32 -27 -3 46 -3 47 -120 0
-119 0 0 -430 0 -430 125 0 125 0 0 243 c0 188 3 255 15 294 43 145 239 181
328 60 30 -39 36 -99 36 -359 l1 -238 120 0 120 0 0 294 c0 265 -2 300 -20
358 -50 163 -221 254 -407 217z"/>
<path d="M7000 2600 l0 -430 123 0 122 0 0 430 0 430 -122 0 -123 0 0 -430z"/>
</g>
</svg>
